<?xml version="1.0" encoding="UTF-8"?>
<svg width="45px" height="44px" viewBox="0 0 45 44" version="1.1" xmlns="http://www.w3.org/2000/svg" xmlns:xlink="http://www.w3.org/1999/xlink">
    <!-- Generator: Sketch 47.1 (45422) - http://www.bohemiancoding.com/sketch -->
    <title>Page 1</title>
    <desc>Created with Sketch.</desc>
    <defs>
        <polygon id="path-1" points="22.4486609 0.0764210526 44.7139565 0.0764210526 44.7139565 44 22.4486609 44 0.183365217 44 0.183365217 0.0764210526 22.4486609 0.0764210526"/>
    </defs>
    <g id="Symbols" stroke="none" stroke-width="1" fill="none" fill-rule="evenodd">
        <g id="//-Footer" transform="translate(-889.000000, -479.000000)">
            <g id=":-Bottom">
                <g transform="translate(326.000000, 428.000000)">
                    <g id=":--Bottom-line" transform="translate(418.000000, 51.000000)">
                        <g id="Page-1" transform="translate(145.000000, 0.000000)">
                            <path d="M14,27.3297472 C14.1592767,29.4594478 14.9468116,31.103071 16.3614504,32.262149 C17.7757045,33.4196949 19.5827643,34 21.784938,34 C24.518034,34 26.5705492,33.1749326 27.9424834,31.5251807 C29.3148023,29.876578 30,28.0027479 30,25.9056057 C30,23.4936049 29.2878715,21.6569297 27.8639992,20.3928988 C26.4382033,19.1304 24.7700298,18.4999167 22.8560162,18.4999167 C21.9092046,18.4999167 21.1074348,18.6190421 20.4476291,18.8592079 C20.0552082,19.004763 19.5069732,19.3027679 18.8060017,19.7513073 L19.6347023,14.7890284 L29.0893527,14.7890284 L29.0893527,11 L16.3502934,11 L14.7263634,23.5407188 L18.8060017,23.7287913 C19.1668751,23.0496619 19.7024142,22.5854178 20.4145427,22.3345269 C20.8177359,22.1996969 21.2967202,22.1322819 21.8480331,22.1322819 C23.0168318,22.1322819 23.8766952,22.5306432 24.4299317,23.3288978 C24.9812446,24.1271525 25.2582476,25.1058189 25.2582476,26.2648969 C25.2582476,27.4442761 24.962393,28.4229424 24.3729922,29.200896 C23.7839761,29.9788495 22.9268058,30.3676348 21.8007117,30.3676348 C20.8238915,30.3676348 20.0806002,30.1041035 19.5700683,29.5770409 C19.0595364,29.0503614 18.7148216,28.3003697 18.5351544,27.3297472 L14,27.3297472 Z" id="Fill-1" fill="#FEFEFE"/>
                            <g id="Group-5">
                                <mask id="mask-2" fill="white">
                                    <use xlink:href="#path-1"/>
                                </mask>
                                <g id="Clip-4"/>
                                <path d="M22.4489739,44 C10.1714087,44 0.183365217,34.1482456 0.183365217,22.0382105 C0.183365217,9.92817544 10.1714087,0.0764210526 22.4489739,0.0764210526 C34.7265391,0.0764210526 44.7145826,9.92817544 44.7145826,22.0382105 C44.7145826,34.1482456 34.7265391,44 22.4489739,44 M22.4489739,4.49957895 C12.6452348,4.49957895 4.66771304,12.3667018 4.66771304,22.0382105 C4.66771304,31.7081754 12.6452348,39.5768421 22.4489739,39.5768421 C32.252713,39.5768421 40.2302348,31.7081754 40.2302348,22.0382105 C40.2302348,12.3667018 32.252713,4.49957895 22.4489739,4.49957895" id="Fill-3" fill="#FEFEFE" mask="url(#mask-2)"/>
                            </g>
                        </g>
                    </g>
                </g>
            </g>
        </g>
    </g>
</svg>